<svg width="621" height="757" viewBox="0 0 465.75 567.75" xmlns="http://www.w3.org/2000/svg" xmlns:xlink="http://www.w3.org/1999/xlink">
<g id="graph0" class="graph" transform="translate(27.2322300814007,856.5102624897731) scale(0.7453551933994603)">
<title>G</title>
<polygon fill="transparent" stroke="transparent" points="-4,4 -4,-1102 203,-1102 203,4 -4,4"></polygon>
<!-- pelanggan -->
<g id="node1" class="node" style="opacity: 1;">
<title>pelanggan</title>
<polygon fill="#232d95" stroke="transparent" points="8.5,-72 8.5,-90 191.5,-90 191.5,-72 8.5,-72"></polygon>
<polygon fill="none" stroke="white" points="8.5,-72 8.5,-90 191.5,-90 191.5,-72 8.5,-72"></polygon>
<text text-anchor="start" x="11.5" y="-79" font-family="opensans" font-weight="bold" font-size="10.00" fill="white">pelanggan</text>
<polygon fill="#404040" stroke="transparent" points="8.5,-54 8.5,-72 191.5,-72 191.5,-54 8.5,-54"></polygon>
<polygon fill="none" stroke="white" points="8.5,-54 8.5,-72 191.5,-72 191.5,-54 8.5,-54"></polygon>
<text text-anchor="start" x="11.5" y="-61" font-family="opensans" font-size="10.00" fill="#e2c044">PK </text>
<text text-anchor="start" x="26.78" y="-61" font-family="opensans" font-size="10.00"> | </text>
<text text-anchor="start" x="33.78" y="-61" font-family="opensans" font-size="10.00" fill="white"> id_pelanggan SERIAL</text>
<polygon fill="#404040" stroke="transparent" points="8.5,-36 8.5,-54 191.5,-54 191.5,-36 8.5,-36"></polygon>
<polygon fill="none" stroke="white" points="8.5,-36 8.5,-54 191.5,-54 191.5,-36 8.5,-36"></polygon>
<text text-anchor="start" x="11.5" y="-42" font-family="opensans" font-size="10.00" fill="white"> &#160;&#160;&#160;&#160;&#160;&#160;&#160;&#160;&#160;nama_pelanggan TEXT NOT NULL</text>
<polygon fill="#404040" stroke="transparent" points="8.5,-18 8.5,-36 191.5,-36 191.5,-18 8.5,-18"></polygon>
<polygon fill="none" stroke="white" points="8.5,-18 8.5,-36 191.5,-36 191.5,-18 8.5,-18"></polygon>
<text text-anchor="start" x="11" y="-24" font-family="opensans" font-size="10.00" fill="white"> &#160;&#160;&#160;&#160;&#160;&#160;&#160;&#160;&#160;alamat_pelanggan TEXT NOT NULL</text>
<polygon fill="#404040" stroke="transparent" points="8.5,0 8.5,-18 191.5,-18 191.5,0 8.5,0"></polygon>
<polygon fill="none" stroke="white" points="8.5,0 8.5,-18 191.5,-18 191.5,0 8.5,0"></polygon>
<text text-anchor="start" x="11.5" y="-6" font-family="opensans" font-size="10.00" fill="white"> &#160;&#160;&#160;&#160;&#160;&#160;&#160;&#160;&#160;no_telepon TEXT NOT NULL</text>
</g>
<!-- diskon -->
<g id="node2" class="node" style="opacity: 1;">
<title>diskon</title>
<polygon fill="#232d95" stroke="transparent" points="3.5,-180 3.5,-198 195.5,-198 195.5,-180 3.5,-180"></polygon>
<polygon fill="none" stroke="white" points="3.5,-180 3.5,-198 195.5,-198 195.5,-180 3.5,-180"></polygon>
<text text-anchor="start" x="6.5" y="-187" font-family="opensans" font-weight="bold" font-size="10.00" fill="white">diskon</text>
<polygon fill="#404040" stroke="transparent" points="3.5,-162 3.5,-180 195.5,-180 195.5,-162 3.5,-162"></polygon>
<polygon fill="none" stroke="white" points="3.5,-162 3.5,-180 195.5,-180 195.5,-162 3.5,-162"></polygon>
<text text-anchor="start" x="6.5" y="-169" font-family="opensans" font-size="10.00" fill="#e2c044">PK </text>
<text text-anchor="start" x="21.78" y="-169" font-family="opensans" font-size="10.00"> | </text>
<text text-anchor="start" x="28.78" y="-169" font-family="opensans" font-size="10.00" fill="white"> kode_diskon SERIAL</text>
<polygon fill="#404040" stroke="transparent" points="3.5,-144 3.5,-162 195.5,-162 195.5,-144 3.5,-144"></polygon>
<polygon fill="none" stroke="white" points="3.5,-144 3.5,-162 195.5,-162 195.5,-144 3.5,-144"></polygon>
<text text-anchor="start" x="6.5" y="-150" font-family="opensans" font-size="10.00" fill="white"> &#160;&#160;&#160;&#160;&#160;&#160;&#160;&#160;&#160;jenis_diskon TEXT NOT NULL</text>
<polygon fill="#404040" stroke="transparent" points="3.5,-126 3.5,-144 195.5,-144 195.5,-126 3.5,-126"></polygon>
<polygon fill="none" stroke="white" points="3.5,-126 3.5,-144 195.5,-144 195.5,-126 3.5,-126"></polygon>
<text text-anchor="start" x="6.04" y="-132" font-family="opensans" font-size="10.00" fill="white"> &#160;&#160;&#160;&#160;&#160;&#160;&#160;&#160;&#160;nominal_diskon INTEGER NOT NULL</text>
<polygon fill="#404040" stroke="transparent" points="3.5,-108 3.5,-126 195.5,-126 195.5,-108 3.5,-108"></polygon>
<polygon fill="none" stroke="white" points="3.5,-108 3.5,-126 195.5,-126 195.5,-108 3.5,-108"></polygon>
<text text-anchor="start" x="6.5" y="-114" font-family="opensans" font-size="10.00" fill="white"> &#160;&#160;&#160;&#160;&#160;&#160;&#160;&#160;&#160;berlaku_hingga DATE NOT NULL</text>
</g>
<!-- pesanan -->
<g id="node3" class="node" style="opacity: 1;">
<title>pesanan</title>
<polygon fill="#232d95" stroke="transparent" points="10.5,-288 10.5,-306 189.5,-306 189.5,-288 10.5,-288"></polygon>
<polygon fill="none" stroke="white" points="10.5,-288 10.5,-306 189.5,-306 189.5,-288 10.5,-288"></polygon>
<text text-anchor="start" x="13.5" y="-295" font-family="opensans" font-weight="bold" font-size="10.00" fill="white">pesanan</text>
<polygon fill="#404040" stroke="transparent" points="10.5,-270 10.5,-288 189.5,-288 189.5,-270 10.5,-270"></polygon>
<polygon fill="none" stroke="white" points="10.5,-270 10.5,-288 189.5,-288 189.5,-270 10.5,-270"></polygon>
<text text-anchor="start" x="13.5" y="-277" font-family="opensans" font-size="10.00" fill="#e2c044">PK </text>
<text text-anchor="start" x="28.78" y="-277" font-family="opensans" font-size="10.00"> | </text>
<text text-anchor="start" x="35.78" y="-277" font-family="opensans" font-size="10.00" fill="white"> id_pesanan SERIAL</text>
<polygon fill="#404040" stroke="transparent" points="10.5,-252 10.5,-270 189.5,-270 189.5,-252 10.5,-252"></polygon>
<polygon fill="none" stroke="white" points="10.5,-252 10.5,-270 189.5,-270 189.5,-252 10.5,-252"></polygon>
<text text-anchor="start" x="13.5" y="-258" font-family="opensans" font-size="10.00" fill="white"> &#160;&#160;&#160;&#160;&#160;&#160;&#160;&#160;&#160;tanggal_pesanan DATE NOT NULL</text>
<polygon fill="#404040" stroke="transparent" points="10.5,-234 10.5,-252 189.5,-252 189.5,-234 10.5,-234"></polygon>
<polygon fill="none" stroke="white" points="10.5,-234 10.5,-252 189.5,-252 189.5,-234 10.5,-234"></polygon>
<text text-anchor="start" x="13.5" y="-240" font-family="opensans" font-size="10.00" fill="white"> &#160;&#160;&#160;&#160;&#160;&#160;&#160;&#160;&#160;jenis_pesanan TEXT NOT NULL</text>
<polygon fill="#404040" stroke="transparent" points="10.5,-216 10.5,-234 189.5,-234 189.5,-216 10.5,-216"></polygon>
<polygon fill="none" stroke="white" points="10.5,-216 10.5,-234 189.5,-234 189.5,-216 10.5,-216"></polygon>
<text text-anchor="start" x="13.5" y="-222" font-family="opensans" font-size="10.00" fill="white"> &#160;&#160;&#160;&#160;&#160;&#160;&#160;&#160;&#160;status_pesanan TEXT NOT NULL</text>
</g>
<!-- detail_pesanan -->
<g id="node4" class="node" style="opacity: 1;">
<title>detail_pesanan</title>
<polygon fill="#232d95" stroke="transparent" points="3.5,-360 3.5,-378 196.5,-378 196.5,-360 3.5,-360"></polygon>
<polygon fill="none" stroke="white" points="3.5,-360 3.5,-378 196.5,-378 196.5,-360 3.5,-360"></polygon>
<text text-anchor="start" x="6.5" y="-367" font-family="opensans" font-weight="bold" font-size="10.00" fill="white">detail_pesanan</text>
<polygon fill="#404040" stroke="transparent" points="3.5,-342 3.5,-360 196.5,-360 196.5,-342 3.5,-342"></polygon>
<polygon fill="none" stroke="white" points="3.5,-342 3.5,-360 196.5,-360 196.5,-342 3.5,-342"></polygon>
<text text-anchor="start" x="6.28" y="-348" font-family="opensans" font-size="10.00" fill="white"> &#160;&#160;&#160;&#160;&#160;&#160;&#160;&#160;&#160;jumlah_pesanan INTEGER NOT NULL</text>
<polygon fill="#404040" stroke="transparent" points="3.5,-324 3.5,-342 196.5,-342 196.5,-324 3.5,-324"></polygon>
<polygon fill="none" stroke="white" points="3.5,-324 3.5,-342 196.5,-342 196.5,-324 3.5,-324"></polygon>
<text text-anchor="start" x="6.5" y="-330" font-family="opensans" font-size="10.00" fill="white"> &#160;&#160;&#160;&#160;&#160;&#160;&#160;&#160;&#160;harga_menu INTEGER NOT NULL</text>
</g>
<!-- menu -->
<g id="node5" class="node" style="opacity: 1;">
<title>menu</title>
<polygon fill="#232d95" stroke="transparent" points="11.5,-468 11.5,-486 188.5,-486 188.5,-468 11.5,-468"></polygon>
<polygon fill="none" stroke="white" points="11.5,-468 11.5,-486 188.5,-486 188.5,-468 11.5,-468"></polygon>
<text text-anchor="start" x="14.5" y="-475" font-family="opensans" font-weight="bold" font-size="10.00" fill="white">menu</text>
<polygon fill="#404040" stroke="transparent" points="11.5,-450 11.5,-468 188.5,-468 188.5,-450 11.5,-450"></polygon>
<polygon fill="none" stroke="white" points="11.5,-450 11.5,-468 188.5,-468 188.5,-450 11.5,-450"></polygon>
<text text-anchor="start" x="14.5" y="-457" font-family="opensans" font-size="10.00" fill="#e2c044">PK </text>
<text text-anchor="start" x="29.78" y="-457" font-family="opensans" font-size="10.00"> | </text>
<text text-anchor="start" x="36.78" y="-457" font-family="opensans" font-size="10.00" fill="white"> id_menu SERIAL</text>
<polygon fill="#404040" stroke="transparent" points="11.5,-432 11.5,-450 188.5,-450 188.5,-432 11.5,-432"></polygon>
<polygon fill="none" stroke="white" points="11.5,-432 11.5,-450 188.5,-450 188.5,-432 11.5,-432"></polygon>
<text text-anchor="start" x="14.5" y="-438" font-family="opensans" font-size="10.00" fill="white"> &#160;&#160;&#160;&#160;&#160;&#160;&#160;&#160;&#160;nama_menu TEXT NOT NULL</text>
<polygon fill="#404040" stroke="transparent" points="11.5,-414 11.5,-432 188.5,-432 188.5,-414 11.5,-414"></polygon>
<polygon fill="none" stroke="white" points="11.5,-414 11.5,-432 188.5,-432 188.5,-414 11.5,-414"></polygon>
<text text-anchor="start" x="14.05" y="-420" font-family="opensans" font-size="10.00" fill="white"> &#160;&#160;&#160;&#160;&#160;&#160;&#160;&#160;&#160;harga_menu INTEGER NOT NULL</text>
<polygon fill="#404040" stroke="transparent" points="11.5,-396 11.5,-414 188.5,-414 188.5,-396 11.5,-396"></polygon>
<polygon fill="none" stroke="white" points="11.5,-396 11.5,-414 188.5,-414 188.5,-396 11.5,-396"></polygon>
<text text-anchor="start" x="14.5" y="-402" font-family="opensans" font-size="10.00" fill="white"> &#160;&#160;&#160;&#160;&#160;&#160;&#160;&#160;&#160;deskripsi_menu TEXT NOT NULL</text>
</g>
<!-- pembayaran -->
<g id="node6" class="node" style="opacity: 1;">
<title>pembayaran</title>
<polygon fill="#232d95" stroke="transparent" points="2.5,-558 2.5,-576 196.5,-576 196.5,-558 2.5,-558"></polygon>
<polygon fill="none" stroke="white" points="2.5,-558 2.5,-576 196.5,-576 196.5,-558 2.5,-558"></polygon>
<text text-anchor="start" x="5.5" y="-565" font-family="opensans" font-weight="bold" font-size="10.00" fill="white">pembayaran</text>
<polygon fill="#404040" stroke="transparent" points="2.5,-540 2.5,-558 196.5,-558 196.5,-540 2.5,-540"></polygon>
<polygon fill="none" stroke="white" points="2.5,-540 2.5,-558 196.5,-558 196.5,-540 2.5,-540"></polygon>
<text text-anchor="start" x="5.5" y="-547" font-family="opensans" font-size="10.00" fill="#e2c044">PK </text>
<text text-anchor="start" x="20.78" y="-547" font-family="opensans" font-size="10.00"> | </text>
<text text-anchor="start" x="27.78" y="-547" font-family="opensans" font-size="10.00" fill="white"> id_pembayaran SERIAL</text>
<polygon fill="#404040" stroke="transparent" points="2.5,-522 2.5,-540 196.5,-540 196.5,-522 2.5,-522"></polygon>
<polygon fill="none" stroke="white" points="2.5,-522 2.5,-540 196.5,-540 196.5,-522 2.5,-522"></polygon>
<text text-anchor="start" x="5.5" y="-528" font-family="opensans" font-size="10.00" fill="white"> &#160;&#160;&#160;&#160;&#160;&#160;&#160;&#160;&#160;jumlah_bayar INTEGER NOT NULL</text>
<polygon fill="#404040" stroke="transparent" points="2.5,-504 2.5,-522 196.5,-522 196.5,-504 2.5,-504"></polygon>
<polygon fill="none" stroke="white" points="2.5,-504 2.5,-522 196.5,-522 196.5,-504 2.5,-504"></polygon>
<text text-anchor="start" x="5.23" y="-510" font-family="opensans" font-size="10.00" fill="white"> &#160;&#160;&#160;&#160;&#160;&#160;&#160;&#160;&#160;metode_pembayaran TEXT NOT NULL</text>
</g>
<!-- laporan_penghasilan -->
<g id="node7" class="node" style="opacity: 1;">
<title>laporan_penghasilan</title>
<polygon fill="#232d95" stroke="transparent" points="0.5,-666 0.5,-684 199.5,-684 199.5,-666 0.5,-666"></polygon>
<polygon fill="none" stroke="white" points="0.5,-666 0.5,-684 199.5,-684 199.5,-666 0.5,-666"></polygon>
<text text-anchor="start" x="3.5" y="-673" font-family="opensans" font-weight="bold" font-size="10.00" fill="white">laporan_penghasilan</text>
<polygon fill="#404040" stroke="transparent" points="0.5,-648 0.5,-666 199.5,-666 199.5,-648 0.5,-648"></polygon>
<polygon fill="none" stroke="white" points="0.5,-648 0.5,-666 199.5,-666 199.5,-648 0.5,-648"></polygon>
<text text-anchor="start" x="3.5" y="-655" font-family="opensans" font-size="10.00" fill="#e2c044">PK </text>
<text text-anchor="start" x="18.78" y="-655" font-family="opensans" font-size="10.00"> | </text>
<text text-anchor="start" x="25.78" y="-655" font-family="opensans" font-size="10.00" fill="white"> id_laporan SERIAL</text>
<polygon fill="#404040" stroke="transparent" points="0.5,-630 0.5,-648 199.5,-648 199.5,-630 0.5,-630"></polygon>
<polygon fill="none" stroke="white" points="0.5,-630 0.5,-648 199.5,-648 199.5,-630 0.5,-630"></polygon>
<text text-anchor="start" x="3.5" y="-636" font-family="opensans" font-size="10.00" fill="white"> &#160;&#160;&#160;&#160;&#160;&#160;&#160;&#160;&#160;jenis_laporan TEXT NOT NULL</text>
<polygon fill="#404040" stroke="transparent" points="0.5,-612 0.5,-630 199.5,-630 199.5,-612 0.5,-612"></polygon>
<polygon fill="none" stroke="white" points="0.5,-612 0.5,-630 199.5,-630 199.5,-612 0.5,-612"></polygon>
<text text-anchor="start" x="3.5" y="-618" font-family="opensans" font-size="10.00" fill="white"> &#160;&#160;&#160;&#160;&#160;&#160;&#160;&#160;&#160;tanggal_laporan DATE NOT NULL</text>
<polygon fill="#404040" stroke="transparent" points="0.5,-594 0.5,-612 199.5,-612 199.5,-594 0.5,-594"></polygon>
<polygon fill="none" stroke="white" points="0.5,-594 0.5,-612 199.5,-612 199.5,-594 0.5,-594"></polygon>
<text text-anchor="start" x="3.5" y="-600" font-family="opensans" font-size="10.00" fill="white"> &#160;&#160;&#160;&#160;&#160;&#160;&#160;&#160;&#160;total_penghasilan INTEGER NOT NULL</text>
</g>
<!-- laporan_stok -->
<g id="node8" class="node" style="opacity: 1;">
<title>laporan_stok</title>
<polygon fill="#232d95" stroke="transparent" points="6.5,-828 6.5,-846 192.5,-846 192.5,-828 6.5,-828"></polygon>
<polygon fill="none" stroke="white" points="6.5,-828 6.5,-846 192.5,-846 192.5,-828 6.5,-828"></polygon>
<text text-anchor="start" x="9.5" y="-835" font-family="opensans" font-weight="bold" font-size="10.00" fill="white">laporan_stok</text>
<polygon fill="#404040" stroke="transparent" points="6.5,-810 6.5,-828 192.5,-828 192.5,-810 6.5,-810"></polygon>
<polygon fill="none" stroke="white" points="6.5,-810 6.5,-828 192.5,-828 192.5,-810 6.5,-810"></polygon>
<text text-anchor="start" x="9.5" y="-817" font-family="opensans" font-size="10.00" fill="#e2c044">PK </text>
<text text-anchor="start" x="24.78" y="-817" font-family="opensans" font-size="10.00"> | </text>
<text text-anchor="start" x="31.78" y="-817" font-family="opensans" font-size="10.00" fill="white"> id_laporan SERIAL</text>
<polygon fill="#404040" stroke="transparent" points="6.5,-792 6.5,-810 192.5,-810 192.5,-792 6.5,-792"></polygon>
<polygon fill="none" stroke="white" points="6.5,-792 6.5,-810 192.5,-810 192.5,-792 6.5,-792"></polygon>
<text text-anchor="start" x="9.5" y="-798" font-family="opensans" font-size="10.00" fill="white"> &#160;&#160;&#160;&#160;&#160;&#160;&#160;&#160;&#160;tanggal_laporan DATE NOT NULL</text>
<polygon fill="#404040" stroke="transparent" points="6.5,-774 6.5,-792 192.5,-792 192.5,-774 6.5,-774"></polygon>
<polygon fill="none" stroke="white" points="6.5,-774 6.5,-792 192.5,-792 192.5,-774 6.5,-774"></polygon>
<text text-anchor="start" x="9.39" y="-780" font-family="opensans" font-size="10.00" fill="white"> &#160;&#160;&#160;&#160;&#160;&#160;&#160;&#160;&#160;nama_bahan_baku TEXT NOT NULL</text>
<polygon fill="#404040" stroke="transparent" points="6.5,-756 6.5,-774 192.5,-774 192.5,-756 6.5,-756"></polygon>
<polygon fill="none" stroke="white" points="6.5,-756 6.5,-774 192.5,-774 192.5,-756 6.5,-756"></polygon>
<text text-anchor="start" x="9.5" y="-762" font-family="opensans" font-size="10.00" fill="white"> &#160;&#160;&#160;&#160;&#160;&#160;&#160;&#160;&#160;stok_awal INTEGER NOT NULL</text>
<polygon fill="#404040" stroke="transparent" points="6.5,-738 6.5,-756 192.5,-756 192.5,-738 6.5,-738"></polygon>
<polygon fill="none" stroke="white" points="6.5,-738 6.5,-756 192.5,-756 192.5,-738 6.5,-738"></polygon>
<text text-anchor="start" x="9.5" y="-744" font-family="opensans" font-size="10.00" fill="white"> &#160;&#160;&#160;&#160;&#160;&#160;&#160;&#160;&#160;stok_akhir INTEGER NOT NULL</text>
<polygon fill="#404040" stroke="transparent" points="6.5,-720 6.5,-738 192.5,-738 192.5,-720 6.5,-720"></polygon>
<polygon fill="none" stroke="white" points="6.5,-720 6.5,-738 192.5,-738 192.5,-720 6.5,-720"></polygon>
<text text-anchor="start" x="9.5" y="-726" font-family="opensans" font-size="10.00" fill="white"> &#160;&#160;&#160;&#160;&#160;&#160;&#160;&#160;&#160;stok_masuk INTEGER NOT NULL</text>
<polygon fill="#404040" stroke="transparent" points="6.5,-702 6.5,-720 192.5,-720 192.5,-702 6.5,-702"></polygon>
<polygon fill="none" stroke="white" points="6.5,-702 6.5,-720 192.5,-720 192.5,-702 6.5,-702"></polygon>
<text text-anchor="start" x="9.5" y="-708" font-family="opensans" font-size="10.00" fill="white"> &#160;&#160;&#160;&#160;&#160;&#160;&#160;&#160;&#160;stok_keluar INTEGER NOT NULL</text>
</g>
<!-- bahan_baku -->
<g id="node9" class="node" style="opacity: 1;">
<title>bahan_baku</title>
<polygon fill="#232d95" stroke="transparent" points="0.5,-918 0.5,-936 198.5,-936 198.5,-918 0.5,-918"></polygon>
<polygon fill="none" stroke="white" points="0.5,-918 0.5,-936 198.5,-936 198.5,-918 0.5,-918"></polygon>
<text text-anchor="start" x="3.5" y="-925" font-family="opensans" font-weight="bold" font-size="10.00" fill="white">bahan_baku</text>
<polygon fill="#404040" stroke="transparent" points="0.5,-900 0.5,-918 198.5,-918 198.5,-900 0.5,-900"></polygon>
<polygon fill="none" stroke="white" points="0.5,-900 0.5,-918 198.5,-918 198.5,-900 0.5,-900"></polygon>
<text text-anchor="start" x="3.5" y="-907" font-family="opensans" font-size="10.00" fill="#e2c044">PK </text>
<text text-anchor="start" x="18.78" y="-907" font-family="opensans" font-size="10.00"> | </text>
<text text-anchor="start" x="25.78" y="-907" font-family="opensans" font-size="10.00" fill="white"> id_bahan_baku SERIAL</text>
<polygon fill="#404040" stroke="transparent" points="0.5,-882 0.5,-900 198.5,-900 198.5,-882 0.5,-882"></polygon>
<polygon fill="none" stroke="white" points="0.5,-882 0.5,-900 198.5,-900 198.5,-882 0.5,-882"></polygon>
<text text-anchor="start" x="3.5" y="-888" font-family="opensans" font-size="10.00" fill="white"> &#160;&#160;&#160;&#160;&#160;&#160;&#160;&#160;&#160;nama_bahan_baku TEXT NOT NULL</text>
<polygon fill="#404040" stroke="transparent" points="0.5,-864 0.5,-882 198.5,-882 198.5,-864 0.5,-864"></polygon>
<polygon fill="none" stroke="white" points="0.5,-864 0.5,-882 198.5,-882 198.5,-864 0.5,-864"></polygon>
<text text-anchor="start" x="3.27" y="-870" font-family="opensans" font-size="10.00" fill="white"> &#160;&#160;&#160;&#160;&#160;&#160;&#160;&#160;&#160;stok_bahan_baku INTEGER NOT NULL</text>
</g>
<!-- rekomendasi_menu -->
<g id="node10" class="node" style="opacity: 1;">
<title>rekomendasi_menu</title>
<polygon fill="#232d95" stroke="transparent" points="4.5,-990 4.5,-1008 195.5,-1008 195.5,-990 4.5,-990"></polygon>
<polygon fill="none" stroke="white" points="4.5,-990 4.5,-1008 195.5,-1008 195.5,-990 4.5,-990"></polygon>
<text text-anchor="start" x="7.5" y="-997" font-family="opensans" font-weight="bold" font-size="10.00" fill="white">rekomendasi_menu</text>
<polygon fill="#404040" stroke="transparent" points="4.5,-972 4.5,-990 195.5,-990 195.5,-972 4.5,-972"></polygon>
<polygon fill="none" stroke="white" points="4.5,-972 4.5,-990 195.5,-990 195.5,-972 4.5,-972"></polygon>
<text text-anchor="start" x="7.5" y="-979" font-family="opensans" font-size="10.00" fill="#e2c044">PK </text>
<text text-anchor="start" x="22.78" y="-979" font-family="opensans" font-size="10.00"> | </text>
<text text-anchor="start" x="29.78" y="-979" font-family="opensans" font-size="10.00" fill="white"> id_rekomendasi SERIAL</text>
<polygon fill="#404040" stroke="transparent" points="4.5,-954 4.5,-972 195.5,-972 195.5,-954 4.5,-954"></polygon>
<polygon fill="none" stroke="white" points="4.5,-954 4.5,-972 195.5,-972 195.5,-954 4.5,-954"></polygon>
<text text-anchor="start" x="7.11" y="-960" font-family="opensans" font-size="10.00" fill="white"> &#160;&#160;&#160;&#160;&#160;&#160;&#160;&#160;&#160;jumlah_dipesan INTEGER NOT NULL</text>
</g>
<!-- ulasan -->
<g id="node11" class="node" style="opacity: 1;">
<title>ulasan</title>
<polygon fill="#232d95" stroke="transparent" points="24.5,-1080 24.5,-1098 175.5,-1098 175.5,-1080 24.5,-1080"></polygon>
<polygon fill="none" stroke="white" points="24.5,-1080 24.5,-1098 175.5,-1098 175.5,-1080 24.5,-1080"></polygon>
<text text-anchor="start" x="27.5" y="-1087" font-family="opensans" font-weight="bold" font-size="10.00" fill="white">ulasan</text>
<polygon fill="#404040" stroke="transparent" points="24.5,-1062 24.5,-1080 175.5,-1080 175.5,-1062 24.5,-1062"></polygon>
<polygon fill="none" stroke="white" points="24.5,-1062 24.5,-1080 175.5,-1080 175.5,-1062 24.5,-1062"></polygon>
<text text-anchor="start" x="27.5" y="-1069" font-family="opensans" font-size="10.00" fill="#e2c044">PK </text>
<text text-anchor="start" x="42.78" y="-1069" font-family="opensans" font-size="10.00"> | </text>
<text text-anchor="start" x="49.78" y="-1069" font-family="opensans" font-size="10.00" fill="white"> id_ulasan SERIAL</text>
<polygon fill="#404040" stroke="transparent" points="24.5,-1044 24.5,-1062 175.5,-1062 175.5,-1044 24.5,-1044"></polygon>
<polygon fill="none" stroke="white" points="24.5,-1044 24.5,-1062 175.5,-1062 175.5,-1044 24.5,-1044"></polygon>
<text text-anchor="start" x="27.5" y="-1050" font-family="opensans" font-size="10.00" fill="white"> &#160;&#160;&#160;&#160;&#160;&#160;&#160;&#160;&#160;ulasan TEXT NOT NULL</text>
<polygon fill="#404040" stroke="transparent" points="24.5,-1026 24.5,-1044 175.5,-1044 175.5,-1026 24.5,-1026"></polygon>
<polygon fill="none" stroke="white" points="24.5,-1026 24.5,-1044 175.5,-1044 175.5,-1026 24.5,-1026"></polygon>
<text text-anchor="start" x="27.1" y="-1032" font-family="opensans" font-size="10.00" fill="white"> &#160;&#160;&#160;&#160;&#160;&#160;&#160;&#160;&#160;rating INTEGER NOT NULL</text>
</g>
</g>
</svg>